<?xml version="1.0" encoding="UTF-8"?>
<svg width="50px" height="44px" viewBox="0 0 50 44" version="1.1" xmlns="http://www.w3.org/2000/svg" xmlns:xlink="http://www.w3.org/1999/xlink">
    <!-- Generator: sketchtool 55.2 (78181) - https://sketchapp.com -->
    <title>59C0FD7C-38F4-45D4-A47B-554038DEEDB0</title>
    <desc>Created with sketchtool.</desc>
    <defs>
        <polygon id="path-1" points="0 43.4093182 49.4704545 43.4093182 49.4704545 0.000227272727 0 0.000227272727"></polygon>
    </defs>
    <g id="Equiti-Email-Shot" stroke="none" stroke-width="1" fill="none" fill-rule="evenodd">
        <g id="Smart-Report---Equiti-Email-Shot" transform="translate(-261.000000, -6949.000000)">
            <g id="Group-23" transform="translate(261.374307, 6949.000000)">
                <path d="M39.8866667,19.0529545 C39.8866667,28.0484091 32.5942424,35.3408333 23.5987879,35.3408333 C14.6033333,35.3408333 7.31090909,28.0484091 7.31090909,19.0529545 C7.31090909,10.0575 14.6033333,2.76507576 23.5987879,2.76507576 C32.5942424,2.76507576 39.8866667,10.0575 39.8866667,19.0529545" id="Fill-1" fill="#E9EAEB"></path>
                <mask id="mask-2" fill="white">
                    <use xlink:href="#path-1"></use>
                </mask>
                <g id="Clip-4"></g>
                <polygon id="Fill-3" fill="#FFFFFF" mask="url(#mask-2)" points="25.4924242 42.9168939 31.5530303 42.9168939 31.5530303 23.2199242 25.4924242 23.2199242"></polygon>
                <path d="M25.9856061,42.4237121 L31.0606061,42.4237121 L31.0606061,23.7115909 L25.9856061,23.7115909 L25.9856061,42.4237121 Z M31.5530303,43.4093182 L25.4924242,43.4093182 C25.2204545,43.4093182 25,43.1888636 25,42.9168939 L25,23.2199242 C25,22.9479545 25.2204545,22.7275 25.4924242,22.7275 L31.5530303,22.7275 C31.8257576,22.7275 32.0462121,22.9479545 32.0462121,23.2199242 L32.0462121,42.9168939 C32.0462121,43.1888636 31.8257576,43.4093182 31.5530303,43.4093182 L31.5530303,43.4093182 Z" id="Fill-5" fill="#414042" mask="url(#mask-2)"></path>
                <polygon id="Fill-6" fill="#FFFFFF" mask="url(#mask-2)" points="15.6439394 42.9168939 21.7045455 42.9168939 21.7045455 32.3108333 15.6439394 32.3108333"></polygon>
                <path d="M16.1371212,42.4237121 L21.2121212,42.4237121 L21.2121212,32.8032576 L16.1371212,32.8032576 L16.1371212,42.4237121 Z M21.7045455,43.4093182 L15.6439394,43.4093182 C15.3719697,43.4093182 15.1515152,43.1888636 15.1515152,42.9168939 L15.1515152,32.3108333 C15.1515152,32.0381061 15.3719697,31.8176515 15.6439394,31.8176515 L21.7045455,31.8176515 C21.9772727,31.8176515 22.1977273,32.0381061 22.1977273,32.3108333 L22.1977273,42.9168939 C22.1977273,43.1888636 21.9772727,43.4093182 21.7045455,43.4093182 L21.7045455,43.4093182 Z" id="Fill-7" fill="#414042" mask="url(#mask-2)"></path>
                <polygon id="Fill-8" fill="#FFFFFF" mask="url(#mask-2)" points="5.79545455 42.9168939 11.8560606 42.9168939 11.8560606 36.8562879 5.79545455 36.8562879"></polygon>
                <path d="M6.28863636,42.4237121 L11.3636364,42.4237121 L11.3636364,37.3487121 L6.28863636,37.3487121 L6.28863636,42.4237121 Z M11.8560606,43.4093182 L5.79545455,43.4093182 C5.52348485,43.4093182 5.3030303,43.1888636 5.3030303,42.9168939 L5.3030303,36.8562879 C5.3030303,36.5835606 5.52348485,36.3631061 5.79545455,36.3631061 L11.8560606,36.3631061 C12.1287879,36.3631061 12.3492424,36.5835606 12.3492424,36.8562879 L12.3492424,42.9168939 C12.3492424,43.1888636 12.1287879,43.4093182 11.8560606,43.4093182 L11.8560606,43.4093182 Z" id="Fill-9" fill="#414042" mask="url(#mask-2)"></path>
                <polygon id="Fill-10" fill="#00AFAA" mask="url(#mask-2)" points="35.3409091 42.9168939 41.4015152 42.9168939 41.4015152 8.82598485 35.3409091 8.82598485"></polygon>
                <path d="M35.8340909,42.4237121 L40.9090909,42.4237121 L40.9090909,9.31765152 L35.8340909,9.31765152 L35.8340909,42.4237121 Z M41.4015152,43.4093182 L35.3409091,43.4093182 C35.0689394,43.4093182 34.8484848,43.1888636 34.8484848,42.9168939 L34.8484848,8.82598485 C34.8484848,8.55401515 35.0689394,8.33356061 35.3409091,8.33356061 L41.4015152,8.33356061 C41.6742424,8.33356061 41.894697,8.55401515 41.894697,8.82598485 L41.894697,42.9168939 C41.894697,43.1888636 41.6742424,43.4093182 41.4015152,43.4093182 L41.4015152,43.4093182 Z" id="Fill-11" fill="#414042" mask="url(#mask-2)"></path>
                <path d="M28.5230303,5.53015152 C28.2510606,5.53015152 28.0306061,5.30969697 28.0306061,5.03772727 L28.0306061,0.492272727 C28.0306061,0.22030303 28.2510606,-0.000151515152 28.5230303,-0.000151515152 C28.795,-0.000151515152 29.0154545,0.22030303 29.0154545,0.492272727 L29.0154545,5.03772727 C29.0154545,5.30969697 28.795,5.53015152 28.5230303,5.53015152" id="Fill-12" fill="#BCC0C4" mask="url(#mask-2)"></path>
                <path d="M30.7957576,3.25742424 L26.250303,3.25742424 C25.9783333,3.25742424 25.7578788,3.0369697 25.7578788,2.765 C25.7578788,2.4930303 25.9783333,2.27257576 26.250303,2.27257576 L30.7957576,2.27257576 C31.0677273,2.27257576 31.2881818,2.4930303 31.2881818,2.765 C31.2881818,3.0369697 31.0677273,3.25742424 30.7957576,3.25742424" id="Fill-13" fill="#BCC0C4" mask="url(#mask-2)"></path>
                <path d="M12.6139394,8.56045455 C12.3419697,8.56045455 12.1215152,8.34 12.1215152,8.0680303 L12.1215152,3.52257576 C12.1215152,3.25060606 12.3419697,3.03015152 12.6139394,3.03015152 C12.8859091,3.03015152 13.1063636,3.25060606 13.1063636,3.52257576 L13.1063636,8.0680303 C13.1063636,8.34 12.8859091,8.56045455 12.6139394,8.56045455" id="Fill-14" fill="#BCC0C4" mask="url(#mask-2)"></path>
                <path d="M14.8866667,6.28772727 L10.3412121,6.28772727 C10.0692424,6.28772727 9.84878788,6.06727273 9.84878788,5.79530303 C9.84878788,5.52333333 10.0692424,5.30287879 10.3412121,5.30287879 L14.8866667,5.30287879 C15.1586364,5.30287879 15.3790909,5.52333333 15.3790909,5.79530303 C15.3790909,6.06727273 15.1586364,6.28772727 14.8866667,6.28772727" id="Fill-15" fill="#BCC0C4" mask="url(#mask-2)"></path>
                <path d="M7.31090909,16.8937879 C7.03893939,16.8937879 6.81848485,16.6733333 6.81848485,16.4013636 L6.81848485,11.8559091 C6.81848485,11.5839394 7.03893939,11.3634848 7.31090909,11.3634848 C7.58287879,11.3634848 7.80333333,11.5839394 7.80333333,11.8559091 L7.80333333,16.4013636 C7.80333333,16.6733333 7.58287879,16.8937879 7.31090909,16.8937879" id="Fill-16" fill="#BCC0C4" mask="url(#mask-2)"></path>
                <path d="M9.58363636,14.6210606 L5.03818182,14.6210606 C4.76621212,14.6210606 4.54575758,14.4006061 4.54575758,14.1286364 C4.54575758,13.8566667 4.76621212,13.6362121 5.03818182,13.6362121 L9.58363636,13.6362121 C9.85560606,13.6362121 10.0760606,13.8566667 10.0760606,14.1286364 C10.0760606,14.4006061 9.85560606,14.6210606 9.58363636,14.6210606" id="Fill-17" fill="#BCC0C4" mask="url(#mask-2)"></path>
                <path d="M48.9775758,43.4093182 L47.4624242,43.4093182 C47.1904545,43.4093182 46.97,43.1888636 46.97,42.9168939 C46.97,42.6441667 47.1904545,42.4237121 47.4624242,42.4237121 L48.9775758,42.4237121 C49.2495455,42.4237121 49.47,42.6441667 49.47,42.9168939 C49.47,43.1888636 49.2495455,43.4093182 48.9775758,43.4093182" id="Fill-18" fill="#414042" mask="url(#mask-2)"></path>
                <path d="M2.00787879,43.4093182 L0.492727273,43.4093182 C0.220757576,43.4093182 0.000303030303,43.1888636 0.000303030303,42.9168939 C0.000303030303,42.6441667 0.220757576,42.4237121 0.492727273,42.4237121 L2.00787879,42.4237121 C2.27984848,42.4237121 2.50030303,42.6441667 2.50030303,42.9168939 C2.50030303,43.1888636 2.27984848,43.4093182 2.00787879,43.4093182" id="Fill-19" fill="#414042" mask="url(#mask-2)"></path>
                <path d="M45.9472727,43.4093182 L3.5230303,43.4093182 C3.25106061,43.4093182 3.03060606,43.1888636 3.03060606,42.9168939 C3.03060606,42.6441667 3.25106061,42.4237121 3.5230303,42.4237121 L45.9472727,42.4237121 C46.2192424,42.4237121 46.439697,42.6441667 46.439697,42.9168939 C46.439697,43.1888636 46.2192424,43.4093182 45.9472727,43.4093182" id="Fill-20" fill="#414042" mask="url(#mask-2)"></path>
                <polygon id="Fill-21" fill="#00AFAA" mask="url(#mask-2)" points="27.7654545 8.8375 18.6745455 8.82537879 20.9472727 11.0981061 6.05560606 26.2496212 10.3412121 30.5359848 25.4927273 14.8859848 27.7654545 17.1587121"></polygon>
                <path d="M6.74863636,26.2469697 L10.335,29.8333333 L25.1387879,14.5439394 C25.2304545,14.4492424 25.3562121,14.394697 25.4887879,14.3939394 L25.4925758,14.3939394 C25.6228788,14.3939394 25.7486364,14.4454545 25.8410606,14.5378788 L27.2728788,15.9704545 L27.2728788,9.32878788 L19.8645455,9.31969697 L21.2956061,10.75 C21.4865152,10.9409091 21.4880303,11.2507576 21.2986364,11.4431818 L6.74863636,26.2469697 Z M10.3410606,31.0287879 C10.2107576,31.0287879 10.085,30.9765152 9.99257576,30.8840909 L5.7069697,26.5977273 C5.51606061,26.4068182 5.51454545,26.0977273 5.70393939,25.9045455 L20.2539394,11.1015152 L18.3259091,9.17348485 C18.1857576,9.03257576 18.1433333,8.82121212 18.2198485,8.63712121 C18.2956061,8.4530303 18.4751515,8.33333333 18.6743939,8.33333333 L18.6751515,8.33333333 L27.7660606,8.34545455 C28.0380303,8.34545455 28.2584848,8.56590909 28.2584848,8.83787879 L28.2584848,17.1590909 C28.2584848,17.3583333 28.1372727,17.5378788 27.9539394,17.6136364 C27.7690909,17.6901515 27.5592424,17.6484848 27.4168182,17.5068182 L25.4986364,15.5886364 L10.6948485,30.8780303 C10.6031818,30.9727273 10.4774242,31.0272727 10.3448485,31.0287879 L10.3410606,31.0287879 Z" id="Fill-22" fill="#414042" mask="url(#mask-2)"></path>
            </g>
        </g>
    </g>
</svg>