<?xml version="1.0" encoding="UTF-8"?>
<svg width="16px" height="15px" viewBox="0 0 16 15" version="1.1" xmlns="http://www.w3.org/2000/svg" xmlns:xlink="http://www.w3.org/1999/xlink">
    <!-- Generator: sketchtool 55.2 (78181) - https://sketchapp.com -->
    <title>406D1A96-D08D-4019-9DD5-3AE04D4BB97E</title>
    <desc>Created with sketchtool.</desc>
    <g id="Equiti-Email-Shot" stroke="none" stroke-width="1" fill="none" fill-rule="evenodd">
        <g id="Smart-Report---Equiti-Email-Shot" transform="translate(-523.000000, -7534.000000)">
            <g id="Group-12-Copy" transform="translate(0.000000, 7512.000000)">
                <g id="Socail" transform="translate(460.000000, 22.000000)">
                    <g id="Group-15-Copy" transform="translate(63.000000, 0.000000)">
                        <rect id="Rectangle-4-Copy-3" fill="#C0C0C0" x="0.75" y="0" width="15" height="15" rx="2"></rect>
                        <path d="M6.84375,9.6875 C5.54921875,9.6875 4.5,8.63828125 4.5,7.34375 C4.5,6.04921875 5.54921875,5 6.84375,5 C7.453125,5 8.00820312,5.2328125 8.42460937,5.61445312 L7.86445313,6.16289063 C7.590625,5.92539063 7.234375,5.78125 6.84375,5.78125 C5.98085937,5.78125 5.28125,6.48085937 5.28125,7.34375 C5.28125,8.20664062 5.98085937,8.90625 6.84375,8.90625 C7.61757812,8.90625 8.25859375,8.34296875 8.3828125,7.60429687 L6.84375,7.60429687 L6.84375,6.82304687 L9.12617188,6.82304687 L9.1390625,6.875 C9.1703125,7.0265625 9.1875,7.18320313 9.1875,7.34375 C9.1875,8.63828125 8.13828125,9.6875 6.84375,9.6875 Z M11.1666667,7.91666667 L11.1666667,8.75 L10.3333333,8.75 L10.3333333,7.91666667 L9.5,7.91666667 L9.5,7.08333333 L10.3333333,7.08333333 L10.3333333,6.25 L11.1666667,6.25 L11.1666667,7.08333333 L12,7.08333333 L12,7.91666667 L11.1666667,7.91666667 Z" id="Shape" fill="#FFFFFF" fill-rule="nonzero"></path>
                    </g>
                </g>
            </g>
        </g>
    </g>
</svg>