<?xml version="1.0" encoding="UTF-8"?>
<svg width="90px" height="34px" viewBox="0 0 90 34" version="1.1" xmlns="http://www.w3.org/2000/svg" xmlns:xlink="http://www.w3.org/1999/xlink">
    <!-- Generator: sketchtool 55.1 (78136) - https://sketchapp.com -->
    <title>D4D235C2-D3ED-4A83-A58D-F95CEE539B94</title>
    <desc>Created with sketchtool.</desc>
    <g id="Equiti-Email-Shot" stroke="none" stroke-width="1" fill="none" fill-rule="evenodd">
        <g id="Smart-Report---Equiti-Email-Shot" transform="translate(-41.000000, -30.000000)" fill="#FFFFFF">
            <g id="Header-Copy">
                <g id="Logo-Copy" transform="translate(41.000000, 30.000000)">
                    <path d="M88.3751734,0.360354477 C89.1017056,0.360354477 89.5143266,0.626990126 89.7963024,1.20458059 C89.8235202,1.2535839 89.8071895,1.28060779 89.764004,1.29718243 L89.6551331,1.34582542 C89.6119476,1.36240007 89.5956169,1.36240007 89.5683992,1.31339676 C89.3241653,0.828768455 88.9826734,0.599966243 88.3751734,0.599966243 C87.6751331,0.599966243 87.2683185,0.904795647 87.2683185,1.42761771 C87.2683185,2.07042582 87.870375,2.17383721 88.4836815,2.23905485 C89.145254,2.31544236 89.8344073,2.43002362 89.8344073,3.26884496 C89.8344073,3.97651039 89.3463024,4.37934641 88.4020282,4.37934641 C87.6424718,4.37934641 87.2033589,4.07451701 86.9427944,3.42666444 C86.9210202,3.37189604 86.9264637,3.35027693 86.9808992,3.32829751 L87.0836008,3.29010375 C87.1325927,3.27388942 87.1489234,3.27965452 87.1757782,3.33370228 C87.4094879,3.88390855 87.7945282,4.14009496 88.4020282,4.14009496 C89.1837218,4.14009496 89.5847298,3.85652435 89.5847298,3.27965452 C89.5847298,2.63648609 89.0204153,2.55505413 88.429246,2.48443171 C87.7509798,2.40263942 87.0131976,2.28805816 87.0131976,1.44419236 C87.0131976,0.779765147 87.517996,0.360354477 88.3751734,0.360354477 Z M84.8705444,8.62112324 L89.1375605,8.62112324 C89.525504,8.62112324 89.784254,8.88883985 89.784254,9.29059491 L89.784254,27.0960912 C89.784254,27.3641681 89.525504,27.6318847 89.1375605,27.6318847 L84.8705444,27.6318847 C84.6121573,27.6318847 84.3534073,27.3641681 84.3534073,27.0960912 L84.3534073,9.29059491 C84.3534073,8.88883985 84.6121573,8.62112324 84.8705444,8.62112324 Z M60.1743629,8.62112324 L64.441379,8.62112324 C64.700129,8.62112324 64.958879,8.88883985 64.958879,9.29059491 L64.958879,27.0960912 C64.958879,27.3641681 64.700129,27.6318847 64.441379,27.6318847 L60.1743629,27.6318847 C59.7867823,27.6318847 59.5280323,27.3641681 59.5280323,27.0960912 L59.5280323,9.29059491 C59.5280323,8.88883985 59.7867823,8.62112324 60.1743629,8.62112324 Z M76.595371,13.5747812 L76.595371,19.5993056 L76.595371,20.268417 C76.7245645,21.6073603 77.8883952,22.6785871 79.1814194,22.6785871 L79.3106129,22.6785871 L80.7328306,22.6785871 C80.9915806,22.6785871 81.2503306,22.9459433 81.2503306,23.2136599 L81.2503306,23.8831316 L81.2503306,27.2301297 L81.2503306,27.3641681 C81.2503306,27.6318847 80.9915806,27.8996013 80.7328306,27.8996013 L78.5350887,27.8996013 C74.5268226,27.8996013 71.2944435,24.9543584 71.1648871,20.9378886 L71.1648871,13.5747812 L68.5788387,13.5747812 C68.1912581,13.5747812 67.9325081,13.3070646 67.9325081,13.0389877 L67.9325081,9.29059491 C67.9325081,8.88920017 68.1912581,8.62112324 68.5788387,8.62112324 L80.7328306,8.62112324 C80.9915806,8.62112324 81.2503306,8.88920017 81.2503306,9.29059491 L81.2503306,13.0389877 C81.2503306,13.3070646 80.9915806,13.5747812 80.7328306,13.5747812 L76.595371,13.5747812 Z M56.6835242,9.15666455 L56.5543306,9.15666455 L56.5543306,24.4186729 C56.5543306,25.6235778 56.2955806,26.0253329 55.1321129,26.5607661 C53.1923952,27.3639159 50.8650968,27.765671 48.4082419,27.765671 L47.5031613,27.765671 C45.693,27.765671 44.2707823,27.2302377 42.9773952,26.2930495 C42.5898145,26.1593713 42.3310645,25.7576163 42.0723145,25.4898997 C40.7796532,24.1509563 40.0037661,22.4106182 40.0037661,20.4022032 L40.0037661,20.2685251 L40.0037661,9.29070301 C40.0037661,8.88894794 40.2625161,8.62123134 40.5209032,8.62123134 L44.9171129,8.62123134 C45.1758629,8.62123134 45.43425,8.88894794 45.43425,9.29070301 L45.43425,20.6702801 C45.43425,20.6702801 45.43425,23.213768 48.1494919,23.213768 C48.1494919,23.213768 49.5717097,23.213768 51.2526774,22.2765798 L51.2526774,9.15666455 C51.2526774,8.88894794 51.5114274,8.62123134 51.7698145,8.62123134 L56.1660242,8.62123134 C56.4247742,8.62123134 56.6835242,8.88894794 56.6835242,9.15666455 Z M17.3762056,15.4488695 L17.3762056,18.1263959 C17.3762056,19.3313008 16.729875,20.0007724 15.4368508,20.0007724 L5.48060081,20.0007724 L5.48060081,20.6702441 C5.48060081,20.6702441 5.48060081,23.213732 8.0670121,23.213732 L8.71334274,23.213732 L8.84253629,23.213732 C10.3943105,23.213732 11.4285847,22.8123373 12.2044718,21.875149 C12.8508024,20.9379607 13.238746,20.8039222 14.2730202,21.3397158 L16.0831815,22.4105822 C16.988625,22.8123373 17.247375,23.4814486 16.729875,24.5526754 C15.3076573,26.6944082 12.5920524,27.8996734 8.84253629,27.8996734 L7.5495121,27.8996734 C3.41205242,27.8996734 0.0501169355,24.4189972 0.0501169355,20.268489 L0.0501169355,15.4488695 C0.179673387,11.2987217 3.41205242,8.0857621 7.5495121,8.0857621 L9.87681048,8.0857621 C14.0146331,8.0857621 17.247375,11.2987217 17.3762056,15.4488695 Z M11.9460847,15.9843027 L11.9460847,15.1811529 C11.9460847,15.1811529 11.9460847,12.6373047 9.35967339,12.6373047 L8.19620565,12.6373047 C5.61015726,12.6373047 5.48060081,15.1811529 5.48060081,15.1811529 L5.48060081,15.9843027 L11.9460847,15.9843027 Z M35.6074839,9.42445322 C36.7713145,9.82620828 37.0297016,10.227603 37.0297016,11.5665464 L37.0297016,13.3068845 L37.0297016,32.7190407 C37.0297016,33.1207958 36.7713145,33.3885124 36.383371,33.3885124 L32.1167177,33.3885124 C31.8579677,33.3885124 31.5992177,33.1207958 31.5992177,32.7190407 L31.5992177,27.6320649 C30.9528871,27.765743 29.91825,27.8994212 29.1427258,27.8994212 L29.1427258,23.2138401 L30.3065565,23.2138401 C30.9528871,23.2138401 31.5992177,22.6784069 31.5992177,21.8748968 L31.5992177,13.9763561 C31.5992177,13.1732063 30.9528871,12.6374128 30.3065565,12.6374128 L29.1427258,12.6374128 L29.1427258,8.08587019 C31.9871613,8.08587019 34.7024032,9.02269815 35.6074839,9.42445322 Z M27.2029718,23.2138401 L28.3668024,23.2138401 L28.3668024,27.8994212 L27.9788589,27.8994212 C23.8413992,27.8994212 20.3502702,24.418745 20.3502702,20.2685971 L20.3502702,15.4489776 C20.6086573,11.2988298 23.8413992,8.08587019 27.9788589,8.08587019 L28.3668024,8.08587019 L28.3668024,12.6374128 L27.2029718,12.6374128 C26.5566411,12.6374128 25.9099476,13.1732063 25.9099476,13.9763561 L25.9099476,21.8748968 C25.9099476,22.5447288 26.5566411,23.2138401 27.2029718,23.2138401 Z M2.91857661,2.42991553 L2.91857661,3.06695854 C2.91857661,3.86254167 2.40869758,4.37959864 1.46478629,4.37959864 C0.509987903,4.37959864 0.000108870968,3.86254167 0.000108870968,3.02876478 L0.000108870968,1.70027068 C0.000108870968,0.87261921 0.499100806,0.360246381 1.45934274,0.360246381 C2.29982661,0.360246381 2.70156048,0.687055211 2.88627823,1.30824421 C2.90260887,1.3626523 2.88627823,1.37886663 2.83728629,1.40084605 L2.73966532,1.43291439 C2.69067339,1.44948904 2.66381855,1.43903981 2.647125,1.38967618 C2.48490726,0.850279467 2.16446371,0.594453371 1.45934274,0.594453371 C0.650794355,0.594453371 0.249423387,1.00845926 0.249423387,1.69450558 L0.249423387,3.02876478 C0.249423387,3.72598098 0.672568548,4.14539165 1.46478629,4.14539165 C2.24611694,4.14539165 2.67470565,3.72598098 2.67470565,3.06695854 L2.67470565,2.59313978 L1.51341532,2.59313978 C1.45934274,2.59313978 1.4430121,2.571881 1.4430121,2.52251737 L1.4430121,2.42451075 C1.4430121,2.37514713 1.45934274,2.35388834 1.51341532,2.35388834 L2.84817339,2.35388834 C2.90260887,2.35388834 2.91857661,2.37514713 2.91857661,2.42991553 Z M7.42579839,0.507436466 L7.42579839,4.06918429 L9.40035484,4.06918429 C9.44934677,4.06918429 9.46567742,4.08539862 9.46567742,4.13440193 L9.46567742,4.23276887 C9.46567742,4.28681664 9.44934677,4.30339128 9.40035484,4.30339128 L7.2468871,4.30339128 C7.19245161,4.30339128 7.17648387,4.28681664 7.17648387,4.23276887 L7.17648387,0.507436466 C7.17648387,0.452668062 7.19245161,0.436814051 7.2468871,0.436814051 L7.36083871,0.436814051 C7.40946774,0.436814051 7.42579839,0.452668062 7.42579839,0.507436466 Z M14.7972702,0.594525434 C14.0050524,0.594525434 13.5819073,1.00853133 13.5819073,1.7053872 L13.5819073,3.03424163 C13.5819073,3.73181813 14.0050524,4.14546371 14.7972702,4.14546371 C15.5786008,4.14546371 16.0013831,3.73181813 16.0013831,3.03424163 L16.0013831,1.7053872 C16.0013831,1.00853133 15.5786008,0.594525434 14.7972702,0.594525434 Z M14.7972702,0.360318445 C15.7411815,0.360318445 16.2510605,0.872330955 16.2510605,1.7053872 L16.2510605,3.03424163 C16.2510605,3.86765819 15.7411815,4.37931038 14.7972702,4.37931038 C13.8424718,4.37931038 13.3325927,3.86765819 13.3325927,3.03424163 L13.3325927,1.7053872 C13.3325927,0.872330955 13.8424718,0.360318445 14.7972702,0.360318445 Z M22.228621,2.44627399 L20.807129,2.44627399 L20.807129,4.06914826 L22.228621,4.06914826 C22.7602742,4.06914826 23.0585806,3.78593797 23.0585806,3.25230635 C23.0585806,2.72948428 22.7602742,2.44627399 22.228621,2.44627399 Z M22.1418871,0.67062469 L20.807129,0.67062469 L20.807129,2.21747177 L22.1418871,2.21747177 C22.6463226,2.21747177 22.9337419,1.95588058 22.9337419,1.43882361 C22.9337419,0.932215881 22.6517661,0.67062469 22.1418871,0.67062469 Z M23.1888629,1.41143941 C23.1888629,1.87444861 22.9932581,2.17387324 22.6245484,2.30430852 L22.6245484,2.31547839 C23.0691048,2.41348501 23.3187823,2.74029384 23.3187823,3.27392545 C23.3187823,3.93835267 22.9014435,4.30335525 22.2395081,4.30335525 L20.6282177,4.30335525 C20.5737823,4.30335525 20.5578145,4.2867806 20.5578145,4.23273284 L20.5578145,0.507400434 C20.5578145,0.452632031 20.5737823,0.436778019 20.6282177,0.436778019 L22.1691048,0.436778019 C22.8143468,0.436778019 23.1888629,0.779801179 23.1888629,1.41143941 Z M28.7541653,0.659959264 L28.7374718,0.659959264 C28.7374718,0.686983147 28.7320282,0.785350083 28.6942863,0.893805935 L27.9238427,2.82727471 L29.5783185,2.82727471 L28.8082379,0.893805935 C28.7701331,0.785350083 28.7596089,0.686983147 28.7541653,0.659959264 Z M30.349125,4.30349938 L30.251504,4.30349938 C30.1698508,4.30349938 30.142996,4.29232951 30.131746,4.2433262 L29.6490847,3.03986259 L27.847996,3.03986259 L27.3704153,4.2433262 C27.3540847,4.29232951 27.3268669,4.30349938 27.2459395,4.30349938 L27.1533992,4.30349938 C27.0989637,4.30349938 27.0884395,4.27611518 27.1047702,4.23792142 L28.6075524,0.474395265 C28.6289637,0.425752275 28.6511008,0.409177626 28.7000927,0.409177626 L28.8082379,0.409177626 C28.8568669,0.409177626 28.8840847,0.425752275 28.9000524,0.474395265 L30.4031976,4.23792142 C30.4191653,4.27611518 30.4086411,4.30349938 30.349125,4.30349938 Z M34.6931492,0.507436466 L34.6931492,4.06918429 L36.6677056,4.06918429 C36.7166976,4.06918429 36.7330282,4.08539862 36.7330282,4.13440193 L36.7330282,4.23276887 C36.7330282,4.28681664 36.7166976,4.30339128 36.6677056,4.30339128 L34.5142379,4.30339128 C34.4598024,4.30339128 34.4438347,4.28681664 34.4438347,4.23276887 L34.4438347,0.507436466 C34.4438347,0.452668062 34.4598024,0.436814051 34.5142379,0.436814051 L34.6281895,0.436814051 C34.6768185,0.436814051 34.6931492,0.452668062 34.6931492,0.507436466 Z M48.9463185,0.507436466 L48.9463185,4.23276887 C48.9463185,4.28681664 48.9303508,4.30339128 48.8813589,4.30339128 L48.7728508,4.30339128 C48.7242218,4.30339128 48.7078911,4.28681664 48.7078911,4.23276887 L48.7078911,1.7328795 C48.7078911,1.4496692 48.7184153,1.14447948 48.7452702,0.823075424 L48.734746,0.823075424 C48.5993831,1.10628572 48.4745444,1.34589749 48.3279315,1.6020839 L47.362246,3.3229648 C47.3404718,3.36656333 47.3190605,3.37737288 47.2755121,3.37737288 L47.2051089,3.37737288 C47.1561169,3.37737288 47.1347056,3.3719681 47.1125685,3.3229648 L46.1305524,1.5804648 C45.9901089,1.33508793 45.8703508,1.10088094 45.7400685,0.823075424 L45.7291815,0.823075424 C45.7509556,1.14447948 45.7622056,1.43885965 45.7622056,1.7328795 L45.7622056,4.23276887 C45.7622056,4.28681664 45.745875,4.30339128 45.6914395,4.30339128 L45.5938185,4.30339128 C45.5393831,4.30339128 45.5230524,4.28681664 45.5230524,4.23276887 L45.5230524,0.507436466 C45.5230524,0.452668062 45.5393831,0.436814051 45.5938185,0.436814051 L45.6801895,0.436814051 C45.7400685,0.436814051 45.7563992,0.452668062 45.783254,0.496266594 L47.2374073,3.07218316 L48.6806734,0.501671371 C48.7078911,0.452668062 48.7242218,0.436814051 48.7782944,0.436814051 L48.8813589,0.436814051 C48.9303508,0.436814051 48.9463185,0.452668062 48.9463185,0.507436466 Z M54.6368952,0.659959264 L54.6202016,0.659959264 C54.6202016,0.686983147 54.6147581,0.785350083 54.577379,0.893805935 L53.8065726,2.82727471 L55.4614113,2.82727471 L54.6909677,0.893805935 C54.6532258,0.785350083 54.6423387,0.686983147 54.6368952,0.659959264 Z M56.2318548,4.30349938 L56.1342339,4.30349938 C56.0525806,4.30349938 56.0257258,4.29232951 56.0144758,4.2433262 L55.5318145,3.03986259 L53.7307258,3.03986259 L53.2531452,4.2433262 C53.2371774,4.29232951 53.2099597,4.30349938 53.1290323,4.30349938 L53.0364919,4.30349938 C52.9820565,4.30349938 52.9711694,4.27611518 52.9875,4.23792142 L54.4902823,0.474395265 C54.5116935,0.425752275 54.5338306,0.409177626 54.5828226,0.409177626 L54.6909677,0.409177626 C54.7395968,0.409177626 54.7668145,0.425752275 54.7831452,0.474395265 L56.2859274,4.23792142 C56.3022581,4.27611518 56.291371,4.30349938 56.2318548,4.30349938 Z M61.9268589,0.670696754 L60.5757702,0.670696754 L60.5757702,2.36995854 L61.9268589,2.36995854 C62.4693992,2.36995854 62.7949234,2.07017359 62.7949234,1.52609274 C62.7949234,0.980930935 62.4802863,0.670696754 61.9268589,0.670696754 Z M63.055125,1.52609274 C63.055125,2.15196588 62.6864153,2.52813834 62.1006895,2.57714165 C62.3068185,2.66397839 62.4262137,2.80017876 62.545246,3.02321588 L63.1531089,4.2328049 C63.1799637,4.27099866 63.1694395,4.30342732 63.115004,4.30342732 L63.0119395,4.30342732 C62.9252056,4.30342732 62.8979879,4.29225744 62.8762137,4.24325414 L62.3122621,3.12158282 C62.1329879,2.76198501 61.9268589,2.60416553 61.4710524,2.60416553 L60.5757702,2.60416553 L60.5757702,4.2328049 C60.5757702,4.28685267 60.5598024,4.30342732 60.5111734,4.30342732 L60.3968589,4.30342732 C60.3427863,4.30342732 60.3268185,4.28685267 60.3268185,4.2328049 L60.3268185,0.507472498 C60.3268185,0.452704094 60.3427863,0.436850083 60.3968589,0.436850083 L61.9540766,0.436850083 C62.6377863,0.436850083 63.055125,0.834281328 63.055125,1.52609274 Z M69.9879556,4.30346335 L69.8794476,4.30346335 C69.7923508,4.30346335 69.7709395,4.29229348 69.7433589,4.24329017 L69.1086411,2.97460892 C68.9297298,2.61501111 68.7239637,2.45683132 68.2681573,2.45683132 L67.579004,2.45683132 L67.579004,4.23284093 C67.579004,4.2868887 67.5626734,4.30346335 67.5140444,4.30346335 L67.4000927,4.30346335 C67.3460202,4.30346335 67.3296895,4.2868887 67.3296895,4.23284093 L67.3296895,0.50750853 C67.3296895,0.452740126 67.3460202,0.436886115 67.4000927,0.436886115 L67.5140444,0.436886115 C67.5626734,0.436886115 67.579004,0.452740126 67.579004,0.50750853 L67.579004,2.22838942 L68.2521895,2.22838942 C68.3004556,2.22838942 68.3490847,2.22838942 68.3875524,2.2337942 L69.6675121,0.496338658 C69.7059798,0.447335349 69.7273911,0.436886115 69.8090444,0.436886115 L69.9338831,0.436886115 C69.9879556,0.436886115 69.9933992,0.469314775 69.9658185,0.50750853 L68.647754,2.27739273 C68.9787218,2.35378024 69.1743266,2.54943316 69.3423508,2.87660231 L70.0256976,4.23284093 C70.0474718,4.27103469 70.0420282,4.30346335 69.9879556,4.30346335 Z M76.4695524,0.507436466 L76.4695524,0.605082765 C76.4695524,0.654446392 76.4532218,0.670660722 76.3991492,0.670660722 L74.3647137,0.670660722 L74.3647137,2.22831736 L76.1658024,2.22831736 C76.2147944,2.22831736 76.2307621,2.24453169 76.2307621,2.29389532 L76.2307621,2.39154161 C76.2307621,2.44631002 76.2147944,2.46216403 76.1658024,2.46216403 L74.3647137,2.46216403 L74.3647137,4.06918429 L76.474996,4.06918429 C76.523625,4.06918429 76.5457621,4.08539862 76.5457621,4.13440193 L76.5457621,4.23276887 C76.5457621,4.28681664 76.523625,4.30339128 76.474996,4.30339128 L74.1858024,4.30339128 C74.1317298,4.30339128 74.1153992,4.28681664 74.1153992,4.23276887 L74.1153992,0.507436466 C74.1153992,0.452668062 74.1317298,0.436814051 74.1858024,0.436814051 L76.3991492,0.436814051 C76.4532218,0.436814051 76.4695524,0.452668062 76.4695524,0.507436466 Z M83.1084677,0.507436466 L83.1084677,0.605082765 C83.1084677,0.654446392 83.0917742,0.670660722 83.0377016,0.670660722 L81.8608065,0.670660722 L81.8608065,4.23276887 C81.8608065,4.28681664 81.8444758,4.30339128 81.7954839,4.30339128 L81.6811694,4.30339128 C81.6270968,4.30339128 81.611129,4.28681664 81.611129,4.23276887 L81.611129,0.670660722 L80.4335081,0.670660722 C80.3794355,0.670660722 80.3631048,0.654446392 80.3631048,0.605082765 L80.3631048,0.507436466 C80.3631048,0.452668062 80.3794355,0.436814051 80.4335081,0.436814051 L83.0377016,0.436814051 C83.0917742,0.436814051 83.1084677,0.452668062 83.1084677,0.507436466 Z" id="Fill-41"></path>
                </g>
            </g>
        </g>
    </g>
</svg>