<?xml version="1.0" encoding="UTF-8"?>
<svg width="21px" height="12px" viewBox="0 0 21 12" version="1.1" xmlns="http://www.w3.org/2000/svg" xmlns:xlink="http://www.w3.org/1999/xlink">
    <!-- Generator: sketchtool 55.2 (78181) - https://sketchapp.com -->
    <title>46D3C166-DF8D-42BA-8080-C30414C1CAEB</title>
    <desc>Created with sketchtool.</desc>
    <g id="Equiti-Email-Shot" stroke="none" stroke-width="1" fill="none" fill-rule="evenodd">
        <g id="Smart-Report---Equiti-Email-Shot" transform="translate(-482.000000, -2422.000000)" fill="#1BB934" fill-rule="nonzero">
            <g id="USDCAD-Copy" transform="translate(15.000000, 2394.000000)">
                <g id="Group-4" transform="translate(467.000000, 24.000000)">
                    <path d="M17.5956634,5.9516628 L15.224518,5.9516628 C14.6855812,5.9516628 14.2486866,5.5147682 14.2486866,4.9758314 C14.2486866,4.4368946 14.6855812,4 15.224518,4 L19.8490929,4 C20.364596,4 20.7824939,4.4368946 20.7824939,4.9758314 L20.7824939,9.89741874 C20.7824939,10.4129219 20.364596,10.8308198 19.8490929,10.8308198 C19.3335897,10.8308198 18.9156918,10.4129219 18.9156918,9.89741874 L18.9156918,7.3316968 L11.6417972,14.9362467 C11.2772814,15.3173325 10.6862845,15.3173325 10.3217687,14.9362467 L6.31477772,10.7471067 L1.59781184,15.658256 C1.24767822,16.0228036 0.668314641,16.0344884 0.303767063,15.6843548 C0.294440833,15.6753973 0.285305493,15.6662432 0.276367195,15.6568986 C-0.0926101343,15.2711483 -0.0920539689,14.6631477 0.277628468,14.2780732 L5.65476351,8.67705569 C6.01927929,8.29596983 6.61027615,8.29596983 6.97479193,8.67705569 L10.9817829,12.8661957 L17.5956634,5.9516628 Z" id="Sell-Arrow-Copy-2"></path>
                </g>
            </g>
        </g>
    </g>
</svg>