<?xml version="1.0" encoding="UTF-8"?>
<svg width="50px" height="48px" viewBox="0 0 50 48" version="1.1" xmlns="http://www.w3.org/2000/svg" xmlns:xlink="http://www.w3.org/1999/xlink">
    <!-- Generator: sketchtool 55.2 (78181) - https://sketchapp.com -->
    <title>27754DB6-412B-4332-A005-C7763E8E44CA</title>
    <desc>Created with sketchtool.</desc>
    <defs>
        <polygon id="path-1" points="0 0.151769231 33.0767692 0.151769231 33.0767692 33.2286923 0 33.2286923"></polygon>
    </defs>
    <g id="Equiti-Email-Shot" stroke="none" stroke-width="1" fill="none" fill-rule="evenodd">
        <g id="Smart-Report---Equiti-Email-Shot" transform="translate(-81.000000, -6950.000000)">
            <g id="Group-40" transform="translate(81.372458, 6950.000000)">
                <g id="Group-3" transform="translate(0.000000, 12.538692)">
                    <mask id="mask-2" fill="white">
                        <use xlink:href="#path-1"></use>
                    </mask>
                    <g id="Clip-2"></g>
                    <path d="M33.0767692,16.6902308 C33.0767692,25.8240769 25.6729231,33.2286923 16.5383077,33.2286923 C7.40446154,33.2286923 -0.000153846154,25.8240769 -0.000153846154,16.6902308 C-0.000153846154,7.55561538 7.40446154,0.151769231 16.5383077,0.151769231 C25.6729231,0.151769231 33.0767692,7.55561538 33.0767692,16.6902308" id="Fill-1" fill="#E9EAEB" mask="url(#mask-2)"></path>
                </g>
                <path d="M25.2446923,5.61523077 C25.1162308,5.61523077 24.9885385,5.56676923 24.8916154,5.46907692 L22.5839231,3.16138462 C22.3885385,2.966 22.3885385,2.64984615 22.5839231,2.45446154 L24.8916154,0.146769231 C25.0862308,-0.0486153846 25.4031538,-0.0486153846 25.5977692,0.146769231 C25.7931538,0.342153846 25.7931538,0.658307692 25.5977692,0.853692308 L23.6439231,2.80753846 L25.5977692,4.76215385 C25.7931538,4.95753846 25.7931538,5.27369231 25.5977692,5.46907692 C25.5008462,5.56676923 25.3731538,5.61523077 25.2446923,5.61523077" id="Fill-4" fill="#414042"></path>
                <path d="M46.1138462,17.8718462 C45.9030769,17.8718462 45.7069231,17.7372308 45.6384615,17.5249231 C42.8923077,9.02107692 35.0061538,3.30723077 26.0138462,3.30723077 L22.9369231,3.30723077 C22.6607692,3.30723077 22.4369231,3.08338462 22.4369231,2.808 C22.4369231,2.53184615 22.6607692,2.308 22.9369231,2.308 L26.0138462,2.308 C35.4407692,2.308 43.71,8.29953846 46.5892308,17.218 C46.6746154,17.4810769 46.53,17.7626154 46.2676923,17.8472308 C46.2169231,17.8641538 46.1646154,17.8718462 46.1138462,17.8718462" id="Fill-6" fill="#414042"></path>
                <path d="M31.4113077,44.44 C31.1920769,44.44 30.9913077,44.2953846 30.9297692,44.0738462 C30.8551538,43.8084615 31.0105385,43.5323077 31.2766923,43.4584615 C40.1128462,40.9938462 46.2828462,32.8184615 46.2828462,23.5769231 L46.2828462,19.7307692 C46.2828462,19.4546154 46.5066923,19.2307692 46.7828462,19.2307692 C47.0597692,19.2307692 47.2836154,19.4546154 47.2836154,19.7307692 L47.2836154,23.5769231 C47.2836154,33.2653846 40.8120769,41.8369231 31.5459231,44.4215385 C31.5005385,44.4338462 31.4559231,44.44 31.4113077,44.44" id="Fill-8" fill="#414042"></path>
                <path d="M29.0908462,44.8463846 L26.0139231,44.8463846 C16.3377692,44.8463846 7.77469231,38.3756154 5.19007692,29.111 C5.11623077,28.8448462 5.27161538,28.5694615 5.537,28.4948462 C5.80392308,28.4194615 6.07930769,28.5763846 6.15315385,28.8417692 C8.61776923,37.6763846 16.7846923,43.8456154 26.0139231,43.8456154 L29.0908462,43.8456154 C29.367,43.8456154 29.5908462,44.0694615 29.5908462,44.3463846 C29.5908462,44.6225385 29.367,44.8463846 29.0908462,44.8463846" id="Fill-10" fill="#414042"></path>
                <path d="M5.24469231,27.1540769 C4.96853846,27.1540769 4.74469231,26.9302308 4.74469231,26.6540769 L4.74469231,23.5771538 C4.74469231,13.9656154 11.1600769,5.41792308 20.3462308,2.791 C20.6093077,2.71484615 20.8885385,2.86792308 20.9646923,3.13407692 C21.0400769,3.39946154 20.8862308,3.67638462 20.6208462,3.75253846 C11.8623846,6.25715385 5.74469231,14.4094615 5.74469231,23.5771538 L5.74469231,26.6540769 C5.74469231,26.9302308 5.52084615,27.1540769 5.24469231,27.1540769" id="Fill-12" fill="#414042"></path>
                <path d="M26.7831538,47.1540769 C26.6546923,47.1540769 26.527,47.1056154 26.4300769,47.0079231 C26.2346923,46.8125385 26.2346923,46.4956154 26.4300769,46.3002308 L28.3839231,44.3463846 L26.4300769,42.3925385 C26.2346923,42.1971538 26.2346923,41.8802308 26.4300769,41.6848462 C26.6246923,41.4894615 26.9408462,41.4894615 27.137,41.6848462 L29.4446923,43.9925385 C29.6400769,44.1879231 29.6400769,44.5048462 29.4446923,44.7002308 L27.137,47.0079231 C27.0393077,47.1056154 26.9108462,47.1540769 26.7831538,47.1540769" id="Fill-14" fill="#414042"></path>
                <path d="M5.24469231,27.1540769 C5.11623077,27.1540769 4.98853846,27.1056154 4.89161538,27.0079231 L2.58392308,24.7002308 C2.38853846,24.5048462 2.38853846,24.1879231 2.58392308,23.9925385 C2.77853846,23.7971538 3.09546154,23.7971538 3.29007692,23.9925385 L5.24469231,25.9471538 L7.19930769,23.9925385 C7.39392308,23.7971538 7.71084615,23.7971538 7.90546154,23.9925385 C8.10084615,24.1879231 8.10084615,24.5048462 7.90546154,24.7002308 L5.59776923,27.0079231 C5.50084615,27.1056154 5.37315385,27.1540769 5.24469231,27.1540769" id="Fill-16" fill="#414042"></path>
                <path d="M49.0908462,22.5383077 C48.9631538,22.5383077 48.8346923,22.4898462 48.737,22.3921538 L46.7831538,20.4383077 L44.8293077,22.3921538 C44.6339231,22.5867692 44.317,22.5867692 44.1216154,22.3921538 C43.9262308,22.1967692 43.9262308,21.8806154 44.1216154,21.6852308 L46.4293077,19.3775385 C46.6246923,19.1821538 46.9416154,19.1821538 47.137,19.3775385 L49.4446923,21.6852308 C49.6400769,21.8806154 49.6400769,22.1967692 49.4446923,22.3921538 C49.347,22.4898462 49.2185385,22.5383077 49.0908462,22.5383077" id="Fill-18" fill="#414042"></path>
                <path d="M36.9191538,12.1014615 C36.7983846,12.1014615 36.6776154,12.0583846 36.5822308,11.9706923 C30.5706923,6.473 21.4968462,6.463 15.4737692,11.9468462 C15.2691538,12.133 14.9522308,12.1183846 14.7676154,11.9137692 C14.5814615,11.7099231 14.5960769,11.3937692 14.8006923,11.2076154 C21.2076154,5.373 30.8614615,5.38376923 37.2560769,11.233 C37.4599231,11.4191538 37.4745385,11.7353077 37.2876154,11.9391538 C37.1899231,12.0468462 37.0545385,12.1014615 36.9191538,12.1014615" id="Fill-20" fill="#BCC0C4"></path>
                <path d="M37.9798462,34.9207692 C37.8598462,34.9207692 37.7390769,34.8769231 37.6436923,34.79 C37.4390769,34.6046154 37.4236923,34.2884615 37.6106154,34.0838462 C43.0706154,28.0869231 43.0806154,19.0346154 37.6336923,13.0261538 C37.4483077,12.8215385 37.4636923,12.5053846 37.6683077,12.32 C37.8713846,12.1338462 38.1883077,12.1484615 38.3744615,12.3546154 C44.1690769,18.7469231 44.1583077,28.3776923 38.3490769,34.7569231 C38.2513846,34.8653846 38.116,34.9207692 37.9798462,34.9207692" id="Fill-22" fill="#BCC0C4"></path>
                <path d="M26.0143077,40.2415385 C22.0158462,40.2415385 18.0173846,38.7953846 14.8266154,35.9007692 C14.6212308,35.7153846 14.6058462,35.3992308 14.792,35.1946154 C14.9773846,34.99 15.2935385,34.9738462 15.4981538,35.1607692 C21.5058462,40.6084615 30.5581538,40.6 36.5558462,35.1384615 C36.7581538,34.9523077 37.0750769,34.9676923 37.262,35.1715385 C37.4481538,35.3761538 37.4327692,35.6923077 37.2289231,35.8776923 C34.0343077,38.7861538 30.0235385,40.2415385 26.0143077,40.2415385" id="Fill-24" fill="#BCC0C4"></path>
                <path d="M14.074,34.9477692 C13.9386154,34.9477692 13.8032308,34.8931538 13.7055385,34.7846923 C7.85630769,28.3908462 7.84476923,18.7362308 13.6793846,12.3285385 C13.8655385,12.1246923 14.1816923,12.1093077 14.3855385,12.2954615 C14.5901538,12.4816154 14.6047692,12.7977692 14.4186154,13.0016154 C8.93476923,19.0246923 8.94476923,28.0993077 14.4424615,34.1100769 C14.6293846,34.3139231 14.6155385,34.6300769 14.4109231,34.8162308 C14.3155385,34.9039231 14.1947692,34.9477692 14.074,34.9477692" id="Fill-26" fill="#BCC0C4"></path>
                <path d="M26.0785385,35.8845385 C32.8746923,35.8845385 38.3700769,30.3745385 38.3531928,23.5768462 C38.3362308,16.7799231 32.8123846,11.2691538 26.0154615,11.2691538 C19.2193077,11.2691538 13.7231538,16.7799231 13.7408036,23.5768462 C13.7585385,30.3745385 19.2823846,35.8845385 26.0785385,35.8845385" id="Fill-28" fill="#00AFAA"></path>
                <path d="M26.0154615,11.7694615 C22.8623846,11.7694615 19.9016154,12.9971538 17.6777692,15.2271538 C15.4539231,17.4571538 14.2331538,20.4217692 14.24081,23.5763846 C14.2577692,30.0871538 19.5677692,35.3840769 26.0785385,35.3840769 C29.2316154,35.3840769 32.1923846,34.1571538 34.4162308,31.9271538 C36.6408462,29.6979231 37.8608462,26.7325385 37.85319,23.5786923 C37.8362308,17.0671538 32.5262308,11.7694615 26.0154615,11.7694615 M26.0785385,36.3848462 C19.0177692,36.3848462 13.2593077,30.6394615 13.2415674,23.5786923 C13.2323846,20.1571538 14.5562308,16.9402308 16.9693077,14.521 C19.3823846,12.1017692 22.5946923,10.7694615 26.0154615,10.7694615 C33.0762308,10.7694615 38.8354615,16.5140769 38.8531942,23.5763846 C38.8616154,26.9971538 37.5377692,30.2140769 35.1246923,32.6333077 C32.7116154,35.0525385 29.4985385,36.3848462 26.0785385,36.3848462" id="Fill-30" fill="#414042"></path>
                <path d="M26.0139231,11.7371538 C22.9493077,11.7371538 20.3600769,17.1517692 20.3600769,23.561 C20.3600769,29.9702308 22.9493077,35.3840769 26.0139231,35.3840769 C29.0785385,35.3840769 31.6677692,29.9702308 31.6677692,23.561 C31.6677692,17.1517692 29.0785385,11.7371538 26.0139231,11.7371538 M26.0139231,36.3848462 C22.2823846,36.3848462 19.3600769,30.7517692 19.3600769,23.561 C19.3600769,16.3702308 22.2823846,10.7371538 26.0139231,10.7371538 C29.7454615,10.7371538 32.6677692,16.3702308 32.6677692,23.561 C32.6677692,30.7517692 29.7454615,36.3848462 26.0139231,36.3848462" id="Fill-32" fill="#414042"></path>
                <path d="M37.5523846,19.4613846 L14.4754615,19.4613846 C14.1993077,19.4613846 13.9754615,19.2375385 13.9754615,18.9613846 C13.9754615,18.6852308 14.1993077,18.4613846 14.4754615,18.4613846 L37.5523846,18.4613846 C37.8285385,18.4613846 38.0523846,18.6852308 38.0523846,18.9613846 C38.0523846,19.2375385 37.8285385,19.4613846 37.5523846,19.4613846" id="Fill-34" fill="#414042"></path>
                <path d="M37.5523846,28.6925385 L14.4754615,28.6925385 C14.1993077,28.6925385 13.9754615,28.4686923 13.9754615,28.1925385 C13.9754615,27.9156154 14.1993077,27.6917692 14.4754615,27.6917692 L37.5523846,27.6917692 C37.8285385,27.6917692 38.0523846,27.9156154 38.0523846,28.1925385 C38.0523846,28.4686923 37.8285385,28.6925385 37.5523846,28.6925385" id="Fill-36" fill="#414042"></path>
                <path d="M26.0139231,36.3848462 C25.7377692,36.3848462 25.5139231,36.161 25.5139231,35.8848462 L25.5139231,11.2694615 C25.5139231,10.9933077 25.7377692,10.7694615 26.0139231,10.7694615 C26.2900769,10.7694615 26.5139231,10.9933077 26.5139231,11.2694615 L26.5139231,35.8848462 C26.5139231,36.161 26.2900769,36.3848462 26.0139231,36.3848462" id="Fill-38" fill="#414042"></path>
            </g>
        </g>
    </g>
</svg>