<?xml version="1.0" encoding="UTF-8"?>
<svg width="48px" height="50px" viewBox="0 0 48 50" version="1.1" xmlns="http://www.w3.org/2000/svg" xmlns:xlink="http://www.w3.org/1999/xlink">
    <!-- Generator: sketchtool 55.2 (78181) - https://sketchapp.com -->
    <title>B6FF6ABB-F559-4A96-A158-3E422A0D13A5</title>
    <desc>Created with sketchtool.</desc>
    <defs>
        <polygon id="path-1" points="0.508125 0.273125 39.5703125 0.273125 39.5703125 39.335625 0.508125 39.335625"></polygon>
        <polygon id="path-3" points="0 0.54703125 41.64125 0.54703125 41.64125 6.25015625 0 6.25015625"></polygon>
        <polygon id="path-5" points="0 49.7271094 47.3828125 49.7271094 47.3828125 0.781015625 0 0.781015625"></polygon>
    </defs>
    <g id="Equiti-Email-Shot" stroke="none" stroke-width="1" fill="none" fill-rule="evenodd">
        <g id="Smart-Report---Equiti-Email-Shot" transform="translate(-443.000000, -6949.000000)">
            <g id="Group-21" transform="translate(443.000000, 6949.000000)">
                <g id="Group-3" transform="translate(7.812500, 0.508359)">
                    <mask id="mask-2" fill="white">
                        <use xlink:href="#path-1"></use>
                    </mask>
                    <g id="Clip-2"></g>
                    <path d="M39.570625,19.804375 C39.570625,30.591875 30.8260938,39.335625 20.039375,39.335625 C9.251875,39.335625 0.508125,30.591875 0.508125,19.804375 C0.508125,9.01765625 9.251875,0.273125 20.039375,0.273125 C30.8260938,0.273125 39.570625,9.01765625 39.570625,19.804375" id="Fill-1" fill="#E9EAEB" mask="url(#mask-2)"></path>
                </g>
                <path d="M41.133125,14.063125 L0.508125,14.063125 L0.508125,10.938125 C0.508125,10.0748437 1.208125,9.375625 2.070625,9.375625 L39.570625,9.375625 C40.433125,9.375625 41.133125,10.0748437 41.133125,10.938125 L41.133125,14.063125 Z" id="Fill-4" fill="#00AFAA"></path>
                <g id="Group-8" transform="translate(0.000000, 8.320859)">
                    <mask id="mask-4" fill="white">
                        <use xlink:href="#path-3"></use>
                    </mask>
                    <g id="Clip-7"></g>
                    <path d="M1.01625,5.23453125 L40.6248437,5.23453125 L40.6248437,2.61734375 C40.6248437,2.0353125 40.1521875,1.56265625 39.5709375,1.56265625 L2.0709375,1.56265625 C1.48890625,1.56265625 1.01625,2.0353125 1.01625,2.61734375 L1.01625,5.23453125 Z M41.1334375,6.25015625 L0.5084375,6.25015625 C0.2271875,6.25015625 -0.00015625,6.0228125 -0.00015625,5.74234375 L-0.00015625,2.61734375 C-0.00015625,1.47515625 0.92953125,0.54703125 2.0709375,0.54703125 L39.5709375,0.54703125 C40.7123438,0.54703125 41.64125,1.47515625 41.64125,2.61734375 L41.64125,5.74234375 C41.64125,6.0228125 41.4139063,6.25015625 41.1334375,6.25015625 L41.1334375,6.25015625 Z" id="Fill-6" fill="#414042" mask="url(#mask-4)"></path>
                </g>
                <mask id="mask-6" fill="white">
                    <use xlink:href="#path-5"></use>
                </mask>
                <g id="Clip-10"></g>
                <polygon id="Fill-9" fill="#FFFFFF" mask="url(#mask-6)" points="2.0703125 46.0942969 39.5703125 46.0942969 39.5703125 14.0630469 2.0703125 14.0630469"></polygon>
                <path d="M2.57890625,45.5857031 L39.0625,45.5857031 L39.0625,14.5708594 L2.57890625,14.5708594 L2.57890625,45.5857031 Z M39.5703125,46.6021094 L2.0703125,46.6021094 C1.78984375,46.6021094 1.5625,46.3747656 1.5625,46.0942969 L1.5625,14.0630469 C1.5625,13.7825781 1.78984375,13.5552344 2.0703125,13.5552344 L39.5703125,13.5552344 C39.8515625,13.5552344 40.0789063,13.7825781 40.0789063,14.0630469 L40.0789063,46.0942969 C40.0789063,46.3747656 39.8515625,46.6021094 39.5703125,46.6021094 L39.5703125,46.6021094 Z" id="Fill-11" fill="#414042" mask="url(#mask-6)"></path>
                <path d="M17.695625,36.7189844 C17.695625,38.4447656 16.2964063,39.8439844 14.570625,39.8439844 C12.8448437,39.8439844 11.445625,38.4447656 11.445625,36.7189844 C11.445625,34.9932031 12.8448437,33.5939844 14.570625,33.5939844 C16.2964063,33.5939844 17.695625,34.9932031 17.695625,36.7189844" id="Fill-12" fill="#00AFAA" mask="url(#mask-6)"></path>
                <path d="M14.570625,34.1021094 C13.126875,34.1021094 11.9534375,35.2755469 11.9534375,36.7192969 C11.9534375,38.1622656 13.126875,39.3357031 14.570625,39.3357031 C16.014375,39.3357031 17.1878125,38.1622656 17.1878125,36.7192969 C17.1878125,35.2755469 16.014375,34.1021094 14.570625,34.1021094 M14.570625,40.3521094 C12.5675,40.3521094 10.9378125,38.7224219 10.9378125,36.7192969 C10.9378125,34.7153906 12.5675,33.0857031 14.570625,33.0857031 C16.57375,33.0857031 18.2034375,34.7153906 18.2034375,36.7192969 C18.2034375,38.7224219 16.57375,40.3521094 14.570625,40.3521094" id="Fill-13" fill="#414042" mask="url(#mask-6)"></path>
                <polygon id="Fill-14" fill="#00AFAA" mask="url(#mask-6)" points="23.9453125 39.8442969 30.1953125 39.8442969 30.1953125 33.5942969 23.9453125 33.5942969"></polygon>
                <path d="M24.4539063,39.3357031 L29.6875,39.3357031 L29.6875,34.1021094 L24.4539063,34.1021094 L24.4539063,39.3357031 Z M30.1953125,40.3521094 L23.9453125,40.3521094 C23.6648437,40.3521094 23.4375,40.1247656 23.4375,39.8442969 L23.4375,33.5942969 C23.4375,33.3130469 23.6648437,33.0857031 23.9453125,33.0857031 L30.1953125,33.0857031 C30.4765625,33.0857031 30.7039063,33.3130469 30.7039063,33.5942969 L30.7039063,39.8442969 C30.7039063,40.1247656 30.4765625,40.3521094 30.1953125,40.3521094 L30.1953125,40.3521094 Z" id="Fill-15" fill="#414042" mask="url(#mask-6)"></path>
                <polygon id="Fill-16" fill="#00AFAA" mask="url(#mask-6)" points="20.820625 18.750625 16.914375 25.000625 24.726875 25.000625"></polygon>
                <path d="M17.830625,24.4928906 L23.8103125,24.4928906 L20.8204687,19.7085156 L17.830625,24.4928906 Z M24.7267187,25.5085156 L16.9142187,25.5085156 C16.7298438,25.5085156 16.5595313,25.4085156 16.4704688,25.2467969 C16.3814063,25.0850781 16.3853125,24.8882031 16.48375,24.7311719 L20.39,18.4811719 C20.5751562,18.1842969 21.0665625,18.1842969 21.2509375,18.4811719 L25.1571875,24.7311719 C25.255625,24.8882031 25.2603125,25.0850781 25.17125,25.2467969 C25.0814062,25.4085156 24.9110937,25.5085156 24.7267187,25.5085156 L24.7267187,25.5085156 Z" id="Fill-17" fill="#414042" mask="url(#mask-6)"></path>
                <path d="M20.820625,30.1958594 C20.5401562,30.1958594 20.3128125,29.9685156 20.3128125,29.6880469 L20.3128125,25.0005469 C20.3128125,24.7200781 20.5401562,24.4927344 20.820625,24.4927344 C21.1010937,24.4927344 21.3284375,24.7200781 21.3284375,25.0005469 L21.3284375,29.6880469 C21.3284375,29.9685156 21.1010937,30.1958594 20.820625,30.1958594" id="Fill-18" fill="#414042" mask="url(#mask-6)"></path>
                <path d="M27.070625,34.1021094 C26.7901563,34.1021094 26.5628125,33.8747656 26.5628125,33.5942969 L26.5628125,30.1958594 L15.0784375,30.1958594 L15.0784375,33.5942969 C15.0784375,33.8747656 14.8510938,34.1021094 14.570625,34.1021094 C14.2901563,34.1021094 14.0628125,33.8747656 14.0628125,33.5942969 L14.0628125,29.6880469 C14.0628125,29.4067969 14.2901563,29.1794531 14.570625,29.1794531 L27.070625,29.1794531 C27.3510938,29.1794531 27.5784375,29.4067969 27.5784375,29.6880469 L27.5784375,33.5942969 C27.5784375,33.8747656 27.3510938,34.1021094 27.070625,34.1021094" id="Fill-19" fill="#414042" mask="url(#mask-6)"></path>
                <path d="M20.820625,49.7271094 C20.5401562,49.7271094 20.3128125,49.4997656 20.3128125,49.2192969 L20.3128125,46.0942969 C20.3128125,45.8130469 20.5401562,45.5857031 20.820625,45.5857031 C21.1010937,45.5857031 21.3284375,45.8130469 21.3284375,46.0942969 L21.3284375,49.2192969 C21.3284375,49.4997656 21.1010937,49.7271094 20.820625,49.7271094" id="Fill-20" fill="#414042" mask="url(#mask-6)"></path>
            </g>
        </g>
    </g>
</svg>