<?xml version="1.0" encoding="UTF-8"?>
<svg width="50px" height="43px" viewBox="0 0 50 43" version="1.1" xmlns="http://www.w3.org/2000/svg" xmlns:xlink="http://www.w3.org/1999/xlink">
    <!-- Generator: sketchtool 55.2 (78181) - https://sketchapp.com -->
    <title>33DD5EA8-77E1-4AB8-8A6A-AFFEAEB70C6B</title>
    <desc>Created with sketchtool.</desc>
    <defs>
        <polygon id="path-1" points="0.000238095238 0.000398148148 42.0637302 0.000398148148 42.0637302 43 0.000238095238 43"></polygon>
        <polygon id="path-3" points="0 43 49.7230159 43 49.7230159 0 0 0"></polygon>
    </defs>
    <g id="Equiti-Email-Shot" stroke="none" stroke-width="1" fill="none" fill-rule="evenodd">
        <g id="Smart-Report---Equiti-Email-Shot" transform="translate(-408.000000, -7110.000000)">
            <g id="Group-25-Copy" transform="translate(408.000000, 7110.000000)">
                <g id="Group-3" transform="translate(3.174603, 0.000000)">
                    <mask id="mask-2" fill="white">
                        <use xlink:href="#path-1"></use>
                    </mask>
                    <g id="Clip-2"></g>
                    <path d="M0.000238095238,21.4996019 C0.000238095238,9.62602778 9.41611111,-0.000398148148 21.0319841,0.000398148148 C32.6478571,0.000398148148 42.0637302,9.62602778 42.0637302,21.5003981 C42.0637302,33.3739722 32.6470635,43.0003981 21.0319841,43.0003981 C9.41611111,42.9996019 0.000238095238,33.3739722 0.000238095238,21.4996019" id="Fill-1" fill="#E9EAEB" mask="url(#mask-2)"></path>
                </g>
                <path d="M25.1404762,11.3460278 C24.1111111,10.2208611 22.9873016,9.5559537 21.4285714,9.5559537 L13.4920635,9.5559537 L4.76190476,9.5559537 L4.76190476,24.6855833 L7.85634921,24.6855833 C7.85634921,24.6855833 9.77936508,27.8707685 13.4119048,27.8707685 L29.3650794,27.8707685 L29.3650794,16.7226204 L25.1404762,11.3460278 Z" id="Fill-4" fill="#FFFFFF"></path>
                <path d="M5.27833333,24.1676722 L8.145,24.1676722 L8.29738095,24.4161167 C8.31484127,24.4463759 10.1243651,27.3528574 13.4116667,27.3528574 L28.8489683,27.3528574 L28.8489683,16.9022648 L24.747381,11.6817463 C23.7124603,10.5541907 22.7188095,10.0740241 21.429127,10.0740241 L5.27833333,10.0740241 L5.27833333,24.1676722 Z M29.8815079,28.3888389 L13.4116667,28.3888389 C10.1084921,28.3888389 8.14261905,25.9991537 7.58071429,25.2036537 L4.24579365,25.2036537 L4.24579365,9.03804259 L21.429127,9.03804259 C22.9981746,9.03804259 24.2989683,9.65995 25.5203968,10.9961352 L25.5457937,11.0255981 L29.8815079,16.5431352 L29.8815079,28.3888389 Z" id="Fill-6" fill="#414042"></path>
                <polygon id="Fill-8" fill="#FFFFFF" points="49.2065873 16.7226204 18.2542063 16.7226204 15.0796032 19.9078056 15.0796032 35.8337315 49.2065873 35.8337315"></polygon>
                <path d="M15.5957937,35.3158204 L48.6902381,35.3158204 L48.6902381,17.2406907 L18.4680159,17.2406907 L15.5957937,20.122487 L15.5957937,35.3158204 Z M49.7227778,36.3518019 L14.563254,36.3518019 L14.563254,19.6932833 L18.0402381,16.2047093 L49.7227778,16.2047093 L49.7227778,36.3518019 Z" id="Fill-10" fill="#414042"></path>
                <path d="M43.6510317,32.6485463 L20.6351587,32.6485463 C20.6351587,31.3290833 19.5684921,30.2596574 18.2542063,30.2596574 L18.2542063,22.2966944 C19.5684921,22.2966944 20.6351587,21.2264722 20.6351587,19.9078056 L43.6510317,19.9078056 C43.6510317,21.2264722 44.7169048,22.2966944 46.0319841,22.2966944 L46.0319841,30.2596574 C44.7169048,30.2596574 43.6510317,31.3290833 43.6510317,32.6485463" id="Fill-12" fill="#00AFAA"></path>
                <path d="M21.1048413,32.1306352 L43.1810317,32.1306352 C43.3953175,30.9425611 44.3318254,30.0029315 45.5159524,29.7887278 L45.5159524,22.7677833 C44.3318254,22.5535796 43.3953175,21.61395 43.1810317,20.4258759 L21.1048413,20.4258759 C20.8905556,21.61395 19.9548413,22.5535796 18.7707143,22.7677833 L18.7707143,29.7887278 C19.9548413,30.0029315 20.8905556,30.9425611 21.1048413,32.1306352 L21.1048413,32.1306352 Z M44.1675397,33.1666167 L20.119127,33.1666167 L20.119127,32.6482278 C20.119127,31.6162278 19.282619,30.7777278 18.2540476,30.7777278 L17.7381746,30.7777278 L17.7381746,21.7787833 L18.2540476,21.7787833 C19.282619,21.7787833 20.119127,20.939487 20.119127,19.907487 L20.119127,19.3898944 L44.1675397,19.3898944 L44.1675397,19.907487 C44.1675397,20.939487 45.003254,21.7787833 46.0318254,21.7787833 L46.5484921,21.7787833 L46.5484921,30.7777278 L46.0318254,30.7777278 C45.003254,30.7777278 44.1675397,31.6162278 44.1675397,32.6482278 L44.1675397,33.1666167 Z" id="Fill-14" fill="#414042"></path>
                <mask id="mask-4" fill="white">
                    <use xlink:href="#path-3"></use>
                </mask>
                <g id="Clip-17"></g>
                <polygon id="Fill-16" fill="#414042" mask="url(#mask-4)" points="40.4761905 26.7961667 42.0634921 26.7961667 42.0634921 25.7601852 40.4761905 25.7601852"></polygon>
                <path d="M35.7137313,26.2796889 C35.7121429,28.4790593 34.1121429,30.2603741 32.1399206,30.259578 C30.1684921,30.2587815 28.5700794,28.4750778 28.5716655,26.2765037 C28.5724603,24.0771333 30.173254,22.2958185 32.1446825,22.2966145 C34.1169048,22.2974111 35.7153175,24.0811148 35.7137313,26.2796889" id="Fill-18" fill="#FFFFFF" mask="url(#mask-4)"></path>
                <path d="M32.1430952,22.8146056 C31.3375397,22.8146056 30.5772222,23.1665685 30.002619,23.8083833 C29.4129365,24.4645315 29.0875382,25.3412537 29.0875382,26.2769019 C29.086746,27.2117537 29.4113492,28.0892722 29.9994444,28.7462167 C30.5740476,29.3880315 31.3343651,29.7415873 32.1399206,29.7415873 L32.1415079,29.7415873 C33.8256349,29.7423833 35.1970635,28.1888093 35.1978586,26.280087 C35.1986508,25.3444389 34.8740476,24.4669204 34.2859524,23.8099759 C33.7113492,23.1681611 32.9502381,22.8146056 32.1446825,22.8146056 L32.1430952,22.8146056 Z M32.1415079,30.7775685 L32.1399206,30.7775685 C31.0375397,30.7767722 30.0057937,30.3013833 29.2319841,29.4381981 C28.4724603,28.5909389 28.055,27.4681611 28.0557925,26.2769019 C28.0565873,25.0848463 28.4756349,23.9620685 29.2359524,23.1156056 C30.0097619,22.254013 31.0415079,21.7786241 32.1430952,21.7786241 L32.1446825,21.7786241 C33.2470635,21.7794204 34.2796032,22.2548093 35.0534127,23.1179944 C35.8129365,23.9652537 36.2303968,25.0880315 36.2296043,26.280087 L35.7137302,26.280087 L36.2296043,26.280087 C36.2272222,28.76055 34.3938889,30.7775685 32.1415079,30.7775685 L32.1415079,30.7775685 Z" id="Fill-19" fill="#414042" mask="url(#mask-4)"></path>
                <path d="M26.7092063,22.6279537 C24.8687302,20.7813426 17.8353968,13.5645093 17.8353968,13.5645093 L9.5552381,19.9237315 C9.5552381,19.9237315 12.8020635,22.6112315 16.7766667,20.8251389 C16.7766667,20.8251389 20.3639683,24.039787 21.4504762,24.8281204 C24.0465079,26.58475 28.5504762,24.4753611 26.7092063,22.6279537" id="Fill-20" fill="#FFFFFF" mask="url(#mask-4)"></path>
                <path d="M23.7678571,25.9958889 C22.8519841,25.9958889 21.9218254,25.7713333 21.1623016,25.2569259 C20.209127,24.566537 17.5115079,22.1736667 16.677381,21.4299259 C12.6027778,23.0575556 9.36626984,20.4393333 9.2265873,20.3230741 L9.88214286,19.5243889 C10.0059524,19.6247222 12.943254,21.9793704 16.5662698,20.3533333 L16.8718254,20.2155741 L17.1202381,20.4393333 C17.1559524,20.4719815 20.7003968,23.6452222 21.7527778,24.4080741 C23.2821429,25.4432593 25.6805556,24.8938148 26.4297619,23.9828519 C26.7146825,23.6356667 26.6892857,23.3394444 26.3440476,22.9938519 C24.522619,21.1663519 17.5369048,13.9988889 17.4670635,13.9264259 L18.2043651,13.2033889 C18.275,13.2742593 25.2559524,20.438537 27.0742063,22.2620556 C27.7964286,22.9874815 27.8527778,23.8769444 27.225,24.6413889 C26.5464286,25.4671481 25.1734127,25.9958889 23.7678571,25.9958889" id="Fill-21" fill="#414042" mask="url(#mask-4)"></path>
                <polygon id="Fill-22" fill="#E9EAEB" mask="url(#mask-4)" points="0 27.0740741 5.55555556 27.0740741 5.55555556 7.96296296 0 7.96296296"></polygon>
                <polygon id="Fill-23" fill="#414042" mask="url(#mask-4)" points="6.07198413 27.5923833 0.000555555556 27.5923833 0.000555555556 26.5564019 5.03944444 26.5564019 5.03944444 8.48127222 0.000555555556 8.48127222 0.000555555556 7.44529074 6.07198413 7.44529074"></polygon>
                <polygon id="Fill-24" fill="#414042" mask="url(#mask-4)" points="1.86507937 12.7407407 2.89761905 12.7407407 2.89761905 10.3518519 1.86507937 10.3518519"></polygon>
            </g>
        </g>
    </g>
</svg>