<?xml version="1.0" encoding="UTF-8"?>
<svg width="50px" height="50px" viewBox="0 0 50 50" version="1.1" xmlns="http://www.w3.org/2000/svg" xmlns:xlink="http://www.w3.org/1999/xlink">
    <!-- Generator: sketchtool 55.2 (78181) - https://sketchapp.com -->
    <title>20DD5855-7786-4118-964F-6661C9CEDB28</title>
    <desc>Created with sketchtool.</desc>
    <defs>
        <polygon id="path-1" points="0.294322034 0.273135593 15.5211864 0.273135593 15.5211864 34.3816102 0.294322034 34.3816102"></polygon>
    </defs>
    <g id="Equiti-Email-Shot" stroke="none" stroke-width="1" fill="none" fill-rule="evenodd">
        <g id="Smart-Report---Equiti-Email-Shot" transform="translate(-120.000000, -7106.000000)">
            <g id="Group-16-Copy" transform="translate(120.000000, 7106.000000)">
                <path d="M25.135,10.4161864 C17.0307627,10.4161864 10.4366949,17.0119492 10.4366949,25.1195763 C10.4366949,33.2263559 17.0307627,39.8221186 25.135,39.8221186 C33.2383898,39.8221186 39.8299153,33.2263559 39.8299153,25.1195763 C39.8299153,17.0119492 33.2383898,10.4161864 25.135,10.4161864 M25.135,40.924661 C16.4231356,40.924661 9.33415254,33.8339831 9.33415254,25.1195763 C9.33415254,16.404322 16.4231356,9.31364407 25.135,9.31364407 C33.8451695,9.31364407 40.9324576,16.404322 40.9324576,25.1195763 C40.9324576,33.8339831 33.8451695,40.924661 25.135,40.924661" id="Fill-1" fill="#414042"></path>
                <polygon id="Fill-3" fill="#00AFAA" points="19.2077966 24.2717797 22.5976271 27.6616102 31.0722034 18.3395763 33.6145763 20.8819492 22.5976271 32.7463559 16.6654237 26.8141525"></polygon>
                <path d="M17.4441525,26.8141525 L22.5822881,31.9522881 L32.8500847,20.8963559 L31.0916102,19.1370339 L22.6170339,28.4590678 L19.2077119,25.0505932 L17.4441525,26.8141525 Z M22.6127966,33.5404237 L15.8865254,26.8141525 L19.2077119,23.4929661 L22.5788983,26.8641525 L31.0534746,17.5421186 L34.3788983,20.8675424 L22.6127966,33.5404237 Z" id="Fill-5" fill="#414042"></path>
                <path d="M23.7099153,49.3983898 C17.115,49.1314407 11.0183898,46.3111017 6.54466102,41.4594068 C2.07008475,36.6068644 -0.246864407,30.3034746 0.0209322034,23.7094068 C0.0404237288,23.1941525 0.0844915254,22.6483898 0.156525424,21.9899153 L1.25228814,22.1111017 C1.18194915,22.7424576 1.14042373,23.2644915 1.12177966,23.7526271 C0.865847458,30.054322 3.07940678,36.0763559 7.35483051,40.7127966 C11.6294068,45.3483898 17.4539831,48.0416102 23.7548305,48.2975424 L23.7099153,49.3983898 Z" id="Fill-7" fill="#BCC0C4"></path>
                <g id="Group-11" transform="translate(33.898305, 12.957712)">
                    <mask id="mask-2" fill="white">
                        <use xlink:href="#path-1"></use>
                    </mask>
                    <g id="Clip-10"></g>
                    <path d="M0.737542373,34.3816102 L0.294322034,33.3739831 C8.62737288,29.7112712 14.0324576,21.7934746 14.4002542,12.7070339 C14.5672034,8.56889831 13.6392373,4.44686441 11.714661,0.785847458 L12.6900847,0.273135593 C14.7036441,4.10449153 15.6765254,8.41974576 15.5011017,12.7519492 C15.1155085,22.2612712 9.45872881,30.5502542 0.737542373,34.3816102" id="Fill-9" fill="#BCC0C4" mask="url(#mask-2)"></path>
                </g>
                <path d="M4.76127119,12.0887288 L3.83076271,11.4997458 C8.54601695,4.06245763 16.9248305,-0.334152542 25.7095763,0.0200847458 C30.6587288,0.219237288 35.3739831,1.87177966 39.3468644,4.79805085 L38.6926271,5.68533898 C34.8994068,2.89042373 30.3934746,1.31161017 25.664661,1.1209322 C17.2833051,0.790423729 9.26720339,4.98279661 4.76127119,12.0887288" id="Fill-12" fill="#BCC0C4"></path>
                <path d="M9.65483051,38.3102542 C2.10144068,30.1187288 2.61923729,17.3094068 10.8107627,9.75601695 C11.1590678,9.43398305 11.5183898,9.13228814 11.8836441,8.84076271 L12.5717797,9.69923729 C12.2268644,9.97635593 11.8878814,10.2611017 11.5573729,10.565339 C3.81245763,17.7068644 3.32262712,29.8187288 10.4641525,37.5636441 L9.65483051,38.3102542 Z" id="Fill-14" fill="#BCC0C4"></path>
            </g>
        </g>
    </g>
</svg>