<?xml version="1.0" encoding="UTF-8"?>
<svg width="17px" height="17px" viewBox="0 0 17 17" version="1.1" xmlns="http://www.w3.org/2000/svg" xmlns:xlink="http://www.w3.org/1999/xlink">
    <!-- Generator: sketchtool 55.2 (78181) - https://sketchapp.com -->
    <title>CC203E36-D2CA-4EC5-ABA9-2D576A87EDE3</title>
    <desc>Created with sketchtool.</desc>
    <g id="Equiti-Email-Shot" stroke="none" stroke-width="1" fill="none" fill-rule="evenodd">
        <g id="Smart-Report---Equiti-Email-Shot" transform="translate(-37.000000, -568.000000)" fill="#414042" fill-rule="nonzero">
            <g id="AUDUSD-Copy" transform="translate(15.000000, 190.000000)">
                <g id="Group-6" transform="translate(22.000000, 378.000000)">
                    <path d="M7.33125,0 C7.01913,0 6.74665196,0.2127125 6.67117196,0.5153125 L6.56890608,0.925703108 C6.48798608,1.25006311 6.22651588,1.48614 5.90351588,1.5725 C5.90011588,1.57318 5.89564284,1.57447628 5.89156216,1.57515622 C5.56856284,1.66219628 5.22498189,1.58876689 4.99242189,1.34804689 L4.69757811,1.04390622 C4.48065811,0.819506216 4.13878811,0.771311216 3.86882811,0.927031216 L3.61117189,1.07578122 C3.34121189,1.23150128 3.21137439,1.55285439 3.29773439,1.85273439 L3.41195311,2.25515622 C3.50375311,2.57679622 3.39624939,2.91169622 3.15960939,3.14765622 C3.15552939,3.15241622 3.15173622,3.15552939 3.14765622,3.15960939 C2.91169628,3.39624939 2.57611628,3.50375311 2.25515622,3.41195311 L1.85273439,3.29773439 C1.55285439,3.21137439 1.23218122,3.34121189 1.07578122,3.61117189 L0.927031216,3.86882811 C0.771311216,4.13878811 0.819506216,4.48065811 1.04390622,4.69757811 L1.34804689,4.99242189 C1.58876689,5.22498189 1.66219628,5.56989088 1.57515622,5.89289088 C1.57447622,5.89629088 1.57318,5.89943588 1.5725,5.90351588 C1.48614,6.22651588 1.25006311,6.48730608 0.925703108,6.56890608 L0.5153125,6.6725 C0.2127125,6.7473 0,7.01913 0,7.33125 L0,7.62875 C0,7.94087 0.2127125,8.21334804 0.5153125,8.28882804 L0.925703108,8.39109392 C1.25006311,8.47201392 1.48614,8.73348412 1.5725,9.05648412 C1.57318,9.05988412 1.57447622,9.06435784 1.57515622,9.06843784 C1.66219628,9.39143716 1.58876689,9.73501804 1.34804689,9.96757804 L1.04390622,10.262422 C0.819506216,10.479342 0.771311284,10.820532 0.927031216,11.091172 L1.07578122,11.3501561 C1.23150128,11.6201161 1.55285439,11.7499539 1.85273439,11.6635939 L2.25515622,11.548047 C2.57679622,11.456247 2.91169622,11.5650789 3.14765622,11.8017189 L3.15828122,11.8123439 C3.39492122,12.0483039 3.50375311,12.3838839 3.41195311,12.7048439 L3.29640622,13.1072659 C3.21072622,13.4071459 3.33988378,13.7284989 3.60984378,13.8842189 L3.86882811,14.0329689 C4.13878811,14.1886889 4.48065811,14.1404939 4.69757811,13.9160939 L4.99109378,13.611953 C5.22365378,13.371233 5.56856284,13.2978039 5.89156216,13.3848439 C5.89496284,13.3855239 5.89810716,13.38682 5.90218784,13.3875 C5.97902716,13.4079 6.05067196,13.4384361 6.11867196,13.4751561 L6.11867196,11.3222659 C4.53555471,10.7616215 3.4,9.2550482 3.4,7.48 C3.4,5.22648 5.22648,3.4 7.48,3.4 C9.73352,3.4 11.56,5.22648 11.56,7.48 L14.96,7.48 L14.96,7.33125 C14.96,7.01913 14.7472878,6.74665196 14.4446878,6.67117196 L14.034297,6.56890608 C13.709937,6.48798608 13.47386,6.22651588 13.3875,5.90351588 C13.38682,5.90011588 13.3855239,5.89564284 13.3848439,5.89156216 C13.2978039,5.56856284 13.371233,5.22498189 13.611953,4.99242189 L13.9160939,4.69757811 C14.1404939,4.48065811 14.1886889,4.13878811 14.0329689,3.86882811 L13.8842189,3.60984378 C13.7284989,3.33988372 13.4071459,3.21004622 13.1072659,3.29640622 L12.7048439,3.41195311 C12.3832039,3.50375311 12.0483039,3.39492122 11.8123439,3.15828122 L11.8017189,3.14765622 C11.5650789,2.91169628 11.456247,2.57611628 11.548047,2.25515622 L11.6635939,1.85273439 C11.7492739,1.55285439 11.6201161,1.23150128 11.3501561,1.07578122 L11.091172,0.927031216 C10.821212,0.771311216 10.479342,0.819506284 10.262422,1.04390622 L9.96757804,1.34804689 C9.73501804,1.58876689 9.39143784,1.66219628 9.06843784,1.57515622 C9.06503716,1.57447622 9.06056412,1.57318 9.05648412,1.5725 C8.73348412,1.48614 8.47269392,1.25006311 8.39109392,0.925703108 L8.28882804,0.5153125 C8.21334804,0.2127125 7.94087,0 7.62875,0 L7.33125,0 Z M7.48,5.44 C6.35324,5.44 5.44,6.35324 5.44,7.48 C5.44,8.17836 5.79202784,8.79352608 6.32718784,9.16140608 C6.73518716,8.17472608 7.70576,7.48 8.84,7.48 L9.52,7.48 C9.52,6.35324 8.60676,5.44 7.48,5.44 Z M8.84,8.84 C8.09671716,8.84 7.48,9.45671716 7.48,10.2 L7.48,16.32 C7.48,16.6955381 7.78446192,17 8.16,17 L16.32,17 C16.6955381,17 17,16.6955381 17,16.32 L17,10.2 C17,9.45671716 16.3832828,8.84 15.64,8.84 L8.84,8.84 Z M8.84,10.88 L15.64,10.88 L15.64,15.64 L8.84,15.64 L8.84,10.88 Z M12.2267189,11.5533591 C12.0500558,11.5586232 11.8823815,11.6324572 11.7592189,11.7592189 L10.88,12.6384378 L10.6807811,12.4392189 C10.5102258,12.2615752 10.2569595,12.1900155 10.0186589,12.2521381 C9.78035832,12.3142608 9.59426077,12.5003583 9.53213813,12.7386589 C9.47001549,12.9769595 9.54157518,13.2302258 9.71921892,13.4007811 L10.3992189,14.0807811 C10.6647792,14.3462314 11.0952208,14.3462314 11.3607811,14.0807811 L12.7207811,12.7207811 C12.9218982,12.525287 12.9823696,12.2263762 12.8730568,11.9680803 C12.7637439,11.7097845 12.5070717,11.5450913 12.2267189,11.5533591 L12.2267189,11.5533591 Z" id="OurPreferences-Copy-4"></path>
                </g>
            </g>
        </g>
    </g>
</svg>