<?xml version="1.0" encoding="UTF-8"?>
<svg width="15px" height="15px" viewBox="0 0 15 15" version="1.1" xmlns="http://www.w3.org/2000/svg" xmlns:xlink="http://www.w3.org/1999/xlink">
    <!-- Generator: sketchtool 55.2 (78181) - https://sketchapp.com -->
    <title>44903036-9E8D-487B-A834-B9C790E2223D</title>
    <desc>Created with sketchtool.</desc>
    <defs>
        <polygon id="path-1" points="7.5e-05 0.13875 6.0695 0.13875 6.0695 6.20825 7.5e-05 6.20825"></polygon>
    </defs>
    <g id="Equiti-Email-Shot" stroke="none" stroke-width="1" fill="none" fill-rule="evenodd">
        <g id="Smart-Report---Equiti-Email-Shot" transform="translate(-545.000000, -7534.000000)">
            <g id="Group-12-Copy" transform="translate(0.000000, 7512.000000)">
                <g id="Socail" transform="translate(460.000000, 22.000000)">
                    <g id="Group-16-Copy-2" transform="translate(85.000000, 0.000000)">
                        <rect id="Rectangle-4-Copy-4" fill="#C0C0C0" x="0" y="0" width="15" height="15" rx="2"></rect>
                        <g id="Group-8" transform="translate(4.375000, 4.375000)">
                            <path d="M3.546625,6.20825 L2.296625,6.20825 C2.296625,4.942 1.266375,3.9115 -0.000125,3.9115 L-0.000125,2.6615 C1.955625,2.6615 3.546625,4.25275 3.546625,6.20825" id="Fill-1" fill="#FFFFFF"></path>
                            <mask id="mask-2" fill="white">
                                <use xlink:href="#path-1"></use>
                            </mask>
                            <g id="Clip-5"></g>
                            <path d="M6.069575,6.20825 L4.819575,6.20825 C4.819575,3.55075 2.657575,1.38875 7.5e-05,1.38875 L7.5e-05,0.13875 C3.346575,0.13875 6.069575,2.8615 6.069575,6.20825" id="Fill-4" fill="#FFFFFF"></path>
                            <path d="M0,5.20825 L0,6.25 L1.04175,6.25 C1.04175,5.6745 0.5755,5.20825 0,5.20825" id="Fill-7" fill="#FFFFFF"></path>
                        </g>
                    </g>
                </g>
            </g>
        </g>
    </g>
</svg>