<?xml version="1.0" encoding="UTF-8"?>
<svg width="16px" height="15px" viewBox="0 0 16 15" version="1.1" xmlns="http://www.w3.org/2000/svg" xmlns:xlink="http://www.w3.org/1999/xlink">
    <!-- Generator: sketchtool 55.2 (78181) - https://sketchapp.com -->
    <title>5B6F0C8A-6806-4929-9F39-DE24B8FB81DD</title>
    <desc>Created with sketchtool.</desc>
    <g id="Equiti-Email-Shot" stroke="none" stroke-width="1" fill="none" fill-rule="evenodd">
        <g id="Smart-Report---Equiti-Email-Shot" transform="translate(-502.000000, -7534.000000)">
            <g id="Group-12-Copy" transform="translate(0.000000, 7512.000000)">
                <g id="Socail" transform="translate(460.000000, 22.000000)">
                    <g id="Group-14-Copy" transform="translate(42.000000, 0.000000)">
                        <rect id="Rectangle-4-Copy-2" fill="#C0C0C0" x="0.5" y="0" width="15" height="15" rx="2"></rect>
                        <path d="M5.16065885,3.75 C5.67320881,3.75 6.01470588,4.12815107 6.01470588,4.63235249 C6.01470588,5.13655392 5.67320881,5.51470588 5.10404703,5.51470588 C4.59149707,5.51537905 4.25,5.13655392 4.25,4.63235249 C4.25,4.12815107 4.59149707,3.75 5.16065885,3.75 Z M6.01470588,10.8088235 L4.25,10.8088235 L4.25,5.95588235 L6.01470588,5.95588235 L6.01470588,10.8088235 Z M11.75,10.8088235 L10.0369118,10.8088235 L10.0369118,8.15669118 C10.0369118,7.42329044 9.58012868,7.25404412 9.4090625,7.25404412 C9.23799632,7.25404412 8.6665625,7.366875 8.6665625,8.15669118 C8.6665625,8.26952206 8.6665625,10.8088235 8.6665625,10.8088235 L6.89705882,10.8088235 L6.89705882,5.95588235 L8.66716912,5.95588235 L8.66716912,6.63286765 C8.89525735,6.23795956 9.35204044,5.95588235 10.2085846,5.95588235 C11.0651287,5.95588235 11.75,6.63286765 11.75,8.15669118 L11.75,10.8088235 Z" id="Shape" fill="#FFFFFF" fill-rule="nonzero"></path>
                    </g>
                </g>
            </g>
        </g>
    </g>
</svg>