<?xml version="1.0" encoding="UTF-8"?>
<svg width="12px" height="12px" viewBox="0 0 12 12" version="1.1" xmlns="http://www.w3.org/2000/svg" xmlns:xlink="http://www.w3.org/1999/xlink">
    <!-- Generator: sketchtool 55.2 (78181) - https://sketchapp.com -->
    <title>6AD6B373-ABA1-40B8-B283-61781C025865</title>
    <desc>Created with sketchtool.</desc>
    <g id="Equiti-Email-Shot" stroke="none" stroke-width="1" fill="none" fill-rule="evenodd">
        <g id="Smart-Report---Equiti-Email-Shot" transform="translate(-35.000000, -230.000000)" fill="#7D8091" fill-rule="nonzero">
            <g id="AUDUSD-Copy" transform="translate(15.000000, 190.000000)">
                <g id="Group-13" transform="translate(20.000000, 38.000000)">
                    <path d="M6,2 C2.6922668,2 0,4.69230575 0,8.00002511 C0,11.3077443 2.6922668,14 6,14 C9.307733,14 12,11.3077443 12,8.00002511 C12,5.93017527 10.9489575,4.10011798 9.3496095,3.02153034 L9.9228515,2.28618182 L7.5,2.19829159 L8.199219,4.50003975 L8.730469,3.81742541 C9.9637115,4.62362789 10.819655,5.95463667 10.972656,7.5010037 C10.7076233,7.51551944 10.5001212,7.73459629 10.5,8.00002511 C10.5002026,8.26652887 10.7093989,8.48603375 10.975586,8.49904652 C10.7421415,10.8662346 8.8662215,12.7421468 6.4990235,12.9755903 C6.48601067,12.7094043 6.26650487,12.5002089 6,12.5 C5.73349513,12.5002089 5.51398933,12.7094043 5.5009765,12.9755903 C3.1337785,12.7421468 1.2578585,10.8662346 1.02441405,8.49904652 C1.2906011,8.48603372 1.4997974,8.26652885 1.5,8.00002511 C1.4997974,7.73352137 1.2906011,7.51401649 1.02441405,7.5010037 C1.27406135,4.96951439 3.40139075,3.00004603 6,3.00004603 C6.18031796,3.00259617 6.34804068,2.90785877 6.43894386,2.75211064 C6.52984704,2.59636252 6.52984704,2.40373373 6.43894386,2.2479856 C6.34804068,2.09223748 6.18031796,1.99750008 6,2 Z M5.9921875,4.49320383 C5.71642942,4.49751435 5.49622367,4.7242729 5.5,5.00003766 L5.5,7.75002615 L3.7001955,9.09963001 C3.47906594,9.26520677 3.43403206,9.57869343 3.59960951,9.79982207 C3.76518696,10.0209507 4.07867493,10.0659844 4.2998045,9.90040766 L6.2998045,8.40041393 C6.42588487,8.30594045 6.50004694,8.15757307 6.5,8.00002511 L6.5,5.00003766 C6.50185072,4.86488807 6.44891164,4.73474547 6.35324515,4.63926334 C6.25757865,4.54378122 6.12733384,4.49109298 5.9921875,4.49320383 Z" id="Shape-Copy-2"></path>
                </g>
            </g>
        </g>
    </g>
</svg>