<?xml version="1.0" encoding="UTF-8"?>
<svg width="16px" height="15px" viewBox="0 0 16 15" version="1.1" xmlns="http://www.w3.org/2000/svg" xmlns:xlink="http://www.w3.org/1999/xlink">
    <!-- Generator: sketchtool 55.2 (78181) - https://sketchapp.com -->
    <title>3677FFC7-022E-4AF4-9E2F-21D728194437</title>
    <desc>Created with sketchtool.</desc>
    <g id="Equiti-Email-Shot" stroke="none" stroke-width="1" fill="none" fill-rule="evenodd">
        <g id="Smart-Report---Equiti-Email-Shot" transform="translate(-481.000000, -7534.000000)">
            <g id="Group-12-Copy" transform="translate(0.000000, 7512.000000)">
                <g id="Socail" transform="translate(460.000000, 22.000000)">
                    <g id="Group-6-Copy" transform="translate(21.000000, 0.000000)">
                        <rect id="Rectangle-4-Copy" fill="#C0C0C0" x="0.25" y="0" width="15" height="15" rx="2"></rect>
                        <path d="M11.5,5.09765625 C11.2241212,5.21972656 10.9274903,5.30273438 10.6162109,5.33935531 C10.9335938,5.14892563 11.1777344,4.84741219 11.2924806,4.48852531 C10.9958497,4.66430656 10.6662597,4.79248031 10.3159181,4.86206062 C10.0351562,4.56298812 9.63476562,4.375 9.19287125,4.375 C8.34326187,4.375 7.65356438,5.06469719 7.65356438,5.91430656 C7.65356438,6.03515625 7.66699219,6.15234375 7.69384781,6.26464844 C6.41455094,6.20117188 5.2805175,5.58837875 4.52246094,4.6569825 C4.38940437,4.88403313 4.31372063,5.14892563 4.31372063,5.43090813 C4.31372063,5.96435531 4.58471687,6.43554688 4.99853531,6.71142563 C4.74584969,6.70288094 4.50903313,6.63452156 4.30151375,6.51855469 C4.30151375,6.52587875 4.30151375,6.5319825 4.30151375,6.53808594 C4.30151375,7.28393562 4.83129875,7.90649406 5.53564469,8.046875 C5.40625,8.08227531 5.27075188,8.10180656 5.13037125,8.10180656 C5.03149406,8.10180656 4.93383781,8.09204094 4.84106438,8.07373031 C5.03637688,8.68530281 5.60522469,9.12963875 6.27783219,9.14306625 C5.75170906,9.55566406 5.08764656,9.80102531 4.36743156,9.80102531 C4.24292,9.80102531 4.12084969,9.79370125 4,9.77905281 C4.6811525,10.2160644 5.48925781,10.4711913 6.35839844,10.4711913 C9.18920906,10.4711913 10.7370606,8.12622063 10.7370606,6.09252937 C10.7370606,6.02661125 10.7346191,5.9594725 10.7321778,5.89355469 C11.0324706,5.67626938 11.2937012,5.40527344 11.5,5.09765625 Z" id="Shape" fill="#FFFFFF" fill-rule="nonzero"></path>
                    </g>
                </g>
            </g>
        </g>
    </g>
</svg>